<?xml version="1.0" encoding="utf-8"?>
<svg version="1.1" xmlns="http://www.w3.org/2000/svg" xmlns:xlink="http://www.w3.org/1999/xlink" x="0px" y="0px"
	 viewBox="0 0 254.7 147" style="enable-background:new 0 0 254.7 147;" xml:space="preserve">
<style type="text/css">
	.st0{fill:#B9B9BC;}
	.st1{opacity:0.51;}
	.st2{display:none;}
	.st3{display:inline;}
</style>
<g id="Layer_1">
	<g>
		<path class="st0" d="M160.5,37.5c0,1.5,0.6,2.1,2.2,2.1h9.7l0.3,4.8c-3.8,0.4-8,0.5-12,0.5c-4.5,0-6.5-2.5-6.5-6V16.4h6.2V37.5z"
			/>
		<path class="st0" d="M176.1,44.7V16.4h6.2v28.3H176.1z"/>
		<path class="st0" d="M209.5,44.7h-4.6l-0.6-2.9c-1.4,1.5-4.3,3.4-8.2,3.4c-6.4,0-9-4.4-9-14.8c0-11.2,3.4-14.6,12.7-14.6
			c3.3,0,6,0.2,8.7,1l-0.5,4.6c-2.8-0.1-5.5-0.2-8-0.2c-4.7,0-6.3,1.2-6.3,9.4c0,7,1.1,9.2,4.6,9.2c2,0,3.7-0.7,5.1-1.4V28.3h6V44.7
			z"/>
		<path class="st0" d="M220.2,37.2l-2,7.4h-6.4l8.2-26.6c0.2-1,1.1-1.6,2.2-1.6h5.9c1.1,0,1.9,0.6,2.2,1.6l8.2,26.6h-6.4l-2-7.4
			H220.2z M226.1,23.7c-0.2-0.9-0.5-1.8-0.6-2.7h-1.1l-0.6,2.7l-2.4,8.6h7L226.1,23.7z"/>
	</g>
	<g class="st1">
		<path class="st0" d="M122.2,30.2c0,11.2-3.2,14.5-12,14.5c-4.3,0-7.7-0.2-11-0.4V16.1c3.2-0.2,6.7-0.4,11-0.4
			C119,15.7,122.2,19.1,122.2,30.2z M115.6,30.2c0-7.4-1.3-9.6-5.5-9.6c-1.8,0-3.3,0-4.8,0v19.1c1.4,0,3,0,4.8,0
			C114.3,39.8,115.6,37.7,115.6,30.2z"/>
		<path class="st0" d="M132.3,37l-2,7.4h-6.4l8.2-26.6c0.2-1,1.1-1.6,2.2-1.6h5.9c1.1,0,1.9,0.6,2.2,1.6l8.2,26.6h-6.4l-2-7.4H132.3
			z M138.3,23.5c-0.2-0.9-0.5-1.8-0.6-2.7h-1.1l-0.6,2.7l-2.4,8.6h7L138.3,23.5z"/>
	</g>
	<g>
		<path class="st0" d="M37.1,16.7l-0.4,4.3c-2.4-0.1-5.9-0.1-8.9-0.1c-3,0-4.1,0.2-4.1,2.6c0,2,0.8,2.5,3,3.2l5.4,1.8
			c4.5,1.6,6,4.2,6,8.3c0,6.4-2.8,8.2-10.5,8.2c-1.8,0-5.4-0.1-9.7-1.1l0.4-4.5c5.2,0.1,7.5,0.2,9.3,0.2c3.3,0,4.2-0.5,4.2-2.7
			c0-2-0.8-2.5-2.7-3.1l-5.7-2c-4.3-1.6-5.9-4.1-5.9-8.3c0-6.5,3-7.8,10.3-7.8C30.6,15.6,34,15.8,37.1,16.7z"/>
		<path class="st0" d="M65.8,30.2c0,11.4-3.2,14.7-12.1,14.7s-12.1-3.3-12.1-14.7c0-11.4,3.2-14.7,12.1-14.7S65.8,18.9,65.8,30.2z
			 M48.1,30.2c0,7.5,1.3,9.6,5.5,9.6s5.5-2.1,5.5-9.6c0-7.5-1.3-9.6-5.5-9.6S48.1,22.7,48.1,30.2z"/>
		<path class="st0" d="M93,33.1c0,8.6-3,11.8-11,11.8c-8.5,0-11.6-3.2-11.6-11.8v-17h6.2v17c0,5.2,1.2,6.8,5.1,6.8
			c3.8,0,5-1.6,5-6.8v-17H93V33.1z"/>
	</g>
</g>


</svg>
